<?xml version="1.0" encoding="utf-8"?>
<!-- Generator: Adobe Illustrator 16.0.4, SVG Export Plug-In . SVG Version: 6.00 Build 0)  -->
<!DOCTYPE svg PUBLIC "-//W3C//DTD SVG 1.1//EN" "http://www.w3.org/Graphics/SVG/1.1/DTD/svg11.dtd">
<svg version="1.1" id="Layer_1" xmlns="http://www.w3.org/2000/svg" xmlns:xlink="http://www.w3.org/1999/xlink" x="0px" y="0px"
	 width="98.823px" height="100px" viewBox="0 0 98.823 100" enable-background="new 0 0 98.823 100" xml:space="preserve">
<path fill="#FFFFFF" d="M8.894,8.949C14.753,2.983,21.845,0,30.171,0c7.898,0,14.75,2.983,20.534,8.98
	c11.611,12.01,11.5,33.536-0.223,45.503c-4.562,4.643-9.872,7.482-15.93,8.509c0.778,2.419,5.902,7.928,15.583,11.518l15.688-36.687
	h1.554l21.048,50.288c1.692,4.051,3.229,6.666,4.612,7.87c1.385,1.204,3.318,1.89,5.786,2.04V100h-14.77
	c-11.715-28.293-8.74-21.766-19.888-48.309l-10.3,24.035c4.455,1.258,11.686,2.404,18.155,2.132l1.302,3.379
	c-6.68,0.324-14.698-0.385-20.99-1.938l-8.717,20.675L34.606,100v-2.048c2.529-0.458,4.155-1.036,4.902-1.75
	c1.522-1.415,3.197-4.253,5.037-8.619l3.999-9.345c-8.518-2.7-16.587-7.422-22.574-14.979c-6.55-0.714-12.319-3.643-17.296-8.807
	C-3.02,42.358-2.835,20.921,8.894,8.949 M45.864,14.536c-1.707-3.805-3.943-6.605-6.758-8.419c-2.815-1.794-5.966-2.694-9.481-2.694
	c-5.405,0-9.756,1.936-13.06,5.801c-7.815,9.103-7.809,28.971-3.053,39.673c1.707,3.805,3.944,6.605,6.759,8.416
	c2.815,1.796,5.966,2.697,9.482,2.697c5.401,0,9.759-1.933,13.06-5.801C50.531,45.219,50.659,25.328,45.864,14.536z"/>
</svg>
